<?xml version="1.0" encoding="utf-8"?>
<!-- Generator: Adobe Illustrator 16.0.0, SVG Export Plug-In . SVG Version: 6.00 Build 0)  -->
<!DOCTYPE svg PUBLIC "-//W3C//DTD SVG 1.1//EN" "http://www.w3.org/Graphics/SVG/1.1/DTD/svg11.dtd">
<svg version="1.1" id="Layer_1" xmlns="http://www.w3.org/2000/svg" xmlns:xlink="http://www.w3.org/1999/xlink" x="0px" y="0px"
	 width="271.96px" height="271.951px" viewBox="0 0 271.96 271.951" enable-background="new 0 0 271.96 271.951"
	 xml:space="preserve">
<path fill="#FFFFFF" d="M152.151,75.675c0,0-28.352,0-54.113,25.164V0H34.59v264.669H98.75v-20.722c0,0,15.143,27.427,53.401,27.427
	c0,0,89.494-3.372,89.494-98.989C241.646,172.385,238.344,75.675,152.151,75.675 M138.118,215.326
	c-22.573,0-40.792-18.219-40.792-40.72c0-22.645,18.219-40.862,40.792-40.862c22.544,0,40.819,18.218,40.819,40.862
	C178.938,197.107,160.662,215.326,138.118,215.326"/>
</svg>
