<?xml version="1.0" encoding="utf-8"?>
<!-- Generator: Adobe Illustrator 16.0.0, SVG Export Plug-In . SVG Version: 6.00 Build 0)  -->
<!DOCTYPE svg PUBLIC "-//W3C//DTD SVG 1.1//EN" "http://www.w3.org/Graphics/SVG/1.1/DTD/svg11.dtd">
<svg version="1.1" id="Layer_1" xmlns="http://www.w3.org/2000/svg" xmlns:xlink="http://www.w3.org/1999/xlink" x="0px" y="0px"
	 width="317.755px" height="225.33px" viewBox="0 0 317.755 225.33" enable-background="new 0 0 317.755 225.33"
	 xml:space="preserve">
<path fill="#FFFFFF" d="M274.593,4.081C262.593,2.289,204.772,0,158.865,0C112.983,0,55.163,2.289,43.162,4.081
	C22.261,7.425,10.87,16.807,4.856,41.039C2.81,49.15,0,93.798,0,110.797v3.751c0,17.034,2.81,61.633,4.856,69.782
	c6.013,24.231,17.404,33.563,38.305,36.919c12.001,1.805,69.872,4.042,115.83,4.042l-0.216,0.039
	c45.934,0,103.804-2.276,115.817-4.081c20.913-3.356,32.267-12.688,38.344-36.919c2.021-8.149,4.818-52.748,4.818-69.782v-3.751
	c0-16.999-2.798-61.646-4.818-69.758C306.86,16.756,295.506,7.425,274.593,4.081z M120.775,153.398V71.932l76.192,39.805
	L120.775,153.398z"/>
</svg>
